<svg id="Layer_1" data-name="Layer 1" xmlns="http://www.w3.org/2000/svg" viewBox="0 0 56 45"><defs><style>.cls-1{fill:#6d6d6d;}.cls-2{fill:#d7d7d7;}.cls-3{fill:#a4a4a4;}</style></defs><path d="M26.47,3.33H44.06a1.29,1.29,0,0,0,0-2.58H26.47a1.29,1.29,0,0,0,0,2.58Z"/><path class="cls-1" d="M18.54,3.33H21A1.29,1.29,0,0,0,21,.75H18.54a1.29,1.29,0,1,0,0,2.58Z"/><path d="M29.72,7.16A1.28,1.28,0,0,0,31,8.44H47.68a1.29,1.29,0,0,0,0-2.57H31A1.29,1.29,0,0,0,29.72,7.16Z"/><path class="cls-1" d="M12.2,8.44H25.91a1.29,1.29,0,1,0,0-2.57H12.2a1.29,1.29,0,1,0,0,2.57Z"/><path d="M11.81,12.27a1.29,1.29,0,0,0,1.29,1.29H51.15a1.29,1.29,0,0,0,0-2.58h-38A1.29,1.29,0,0,0,11.81,12.27Z"/><path class="cls-1" d="M7.39,13.18a1.33,1.33,0,0,0,.38-.91,1.36,1.36,0,0,0-.38-.91L7.2,11.2A1.29,1.29,0,0,0,7,11.08L6.77,11h0a1.51,1.51,0,0,0-.52,0L6,11.08a.88.88,0,0,0-.21.12.67.67,0,0,0-.16.12l-.05,0a1.25,1.25,0,0,0-.37.91,1.35,1.35,0,0,0,.37.92,1.36,1.36,0,0,0,.92.36A1.32,1.32,0,0,0,7.39,13.18Z"/><path class="cls-2" d="M1.12,26.69l0,0a1.55,1.55,0,0,0-.13.17.76.76,0,0,0-.13.23.75.75,0,0,0-.07.23,1.15,1.15,0,0,0,0,.26.83.83,0,0,0,0,.24.84.84,0,0,0,.07.26.83.83,0,0,0,.09.16l0,.06a1.35,1.35,0,0,0,.16.19,1.28,1.28,0,0,0,1.82,0,.78.78,0,0,0,.16-.2l0,0a.48.48,0,0,0,.09-.19.63.63,0,0,0,.08-.23,1.18,1.18,0,0,0,0-.26,1.35,1.35,0,0,0-.37-.92A1.35,1.35,0,0,0,1.12,26.69Z"/><path class="cls-2" d="M10.6,18.73a1.26,1.26,0,0,0,.91-.38,1.28,1.28,0,0,0,0-1.82,1.29,1.29,0,0,0-.91-.36h0a1.31,1.31,0,0,0-.92.36,1.29,1.29,0,0,0,.92,2.2Z"/><path d="M37,17.38a1.29,1.29,0,0,0,1.29,1.29H52.69a1.29,1.29,0,0,0,0-2.57H38.32A1.28,1.28,0,0,0,37,17.38Z"/><path class="cls-1" d="M24.26,16.1a1.29,1.29,0,1,0,0,2.57H33a1.29,1.29,0,1,0,0-2.57Z"/><path class="cls-3" d="M16.68,16.1a1.29,1.29,0,1,0,0,2.57h2.37a1.29,1.29,0,0,0,0-2.57Z"/><path d="M54,21.21h-47a1.29,1.29,0,0,0,0,2.58H54a1.29,1.29,0,0,0,0-2.58Z"/><path d="M52.69,26.32h-21a1.29,1.29,0,0,0,0,2.58h21a1.29,1.29,0,0,0,0-2.58Z"/><path class="cls-1" d="M25.91,28.9a1.29,1.29,0,0,0,0-2.58h-8a1.29,1.29,0,1,0,0,2.58Z"/><path class="cls-3" d="M13.92,27.61a1.29,1.29,0,0,0-1.29-1.29H7.72a1.29,1.29,0,0,0,0,2.58h4.91A1.29,1.29,0,0,0,13.92,27.61Z"/><path d="M51.15,31.44h-38a1.29,1.29,0,1,0,0,2.57H51.15a1.29,1.29,0,1,0,0-2.57Z"/><path d="M47.68,36.55H29.06a1.29,1.29,0,0,0,0,2.58H47.68a1.29,1.29,0,0,0,0-2.58Z"/><path class="cls-1" d="M24.24,37.84A1.29,1.29,0,0,0,23,36.55H10.13a1.29,1.29,0,0,0,0,2.58H23A1.29,1.29,0,0,0,24.24,37.84Z"/><path d="M44.06,41.67H23.44a1.29,1.29,0,1,0,0,2.57H44.06a1.29,1.29,0,1,0,0-2.57Z"/><path class="cls-1" d="M19,42.66a1.59,1.59,0,0,0-.07-.2,1.39,1.39,0,0,0-.11-.21.78.78,0,0,0-.17-.21l-.19-.16-.22-.12a1.27,1.27,0,0,0-.24-.07,1.4,1.4,0,0,0-.5,0,.72.72,0,0,0-.25.07l-.22.12a1.57,1.57,0,0,0-.19.15,1.2,1.2,0,0,0-.17.21,1.13,1.13,0,0,0-.11.22,1.59,1.59,0,0,0-.07.2v.05a1.71,1.71,0,0,0,0,.25,1.28,1.28,0,0,0,.39.91A1,1,0,0,0,17,44l.06,0,.16.09a1.05,1.05,0,0,0,.24.06,1,1,0,0,0,.25,0,.69.69,0,0,0,.25,0,1,1,0,0,0,.25-.06,1.06,1.06,0,0,0,.22-.13l.2-.15A1.32,1.32,0,0,0,19,43a2.45,2.45,0,0,0,0-.27Z"/></svg>