<svg id="Layer_1" data-name="Layer 1" xmlns="http://www.w3.org/2000/svg" viewBox="0 0 255 45"><defs><style>.cls-1{fill:#fff;}</style></defs><path class="cls-1" d="M76.4,34.55a2.06,2.06,0,0,1-2.33,1.69c-1.53,0-2-.56-2.3-1.65L65.86,11.82a3.36,3.36,0,0,1-.16-1.05c0-.56.28-1.08,1.65-1.08a1.7,1.7,0,0,1,2,1.52l5,20.52,6.07-19.19a2,2,0,0,1,2.26-1.73,2,2,0,0,1,2.21,1.73l5.87,19.19L96,11.21c.29-1.16.69-1.52,1.85-1.52s1.61.52,1.61,1.08a5.15,5.15,0,0,1-.16,1.05L93.22,34.59c-.28,1.09-.77,1.65-2.26,1.65a2.06,2.06,0,0,1-2.37-1.69l-6-19.19Z"/><path class="cls-1" d="M119,34.83c0,.93-.52,1.41-1.65,1.41s-1.73-.48-1.73-1.41V25.58a5.58,5.58,0,0,0-.8-3.22A3.69,3.69,0,0,0,111.57,21a5.17,5.17,0,0,0-4.47,2.29V34.83c0,.93-.52,1.41-1.65,1.41s-1.73-.48-1.73-1.41V10c0-.93.53-1.41,1.65-1.41S107.1,9,107.1,10V20.59A6.54,6.54,0,0,1,112.69,18c2.54,0,4.11.85,5.15,2.34A8.19,8.19,0,0,1,119,25.05Z"/><path class="cls-1" d="M125.93,14.35a2.13,2.13,0,0,1-2.22-2.21,2.22,2.22,0,0,1,4.43,0A2.13,2.13,0,0,1,125.93,14.35Zm1.69,20.48c0,.93-.53,1.41-1.65,1.41s-1.73-.48-1.73-1.41V19.46c0-.92.52-1.41,1.65-1.41s1.73.49,1.73,1.41Z"/><path class="cls-1" d="M144.85,34.31a1.37,1.37,0,0,1-.81,1.2,7.29,7.29,0,0,1-3.58.85c-2.37,0-3.86-.92-4.67-2.41A9.92,9.92,0,0,1,135,29.2V21.27h-2.25a1.24,1.24,0,0,1-1.41-1.41,1.26,1.26,0,0,1,1.41-1.44H135V14c0-.92.52-1.41,1.65-1.41s1.73.49,1.73,1.41v4.39H143a1.24,1.24,0,0,1,1.41,1.4A1.27,1.27,0,0,1,143,21.27h-4.58V29.2a7.52,7.52,0,0,0,.44,3.18,2.17,2.17,0,0,0,2.09,1.08,4.34,4.34,0,0,0,1.69-.36,3.19,3.19,0,0,1,.93-.32C144.48,32.78,144.85,33.79,144.85,34.31Z"/><path class="cls-1" d="M162.43,33.26c0,.57-.36,1.05-1.17,1.57a9.67,9.67,0,0,1-5.55,1.53c-5.39,0-8.61-3.5-8.61-9.17s3.14-9.34,8.09-9.34c4.62,0,7.6,3.34,7.6,7.89,0,2.13-.76,2.37-2.09,2.37H150.44c.32,3.3,2.05,5.35,5.43,5.35a6.58,6.58,0,0,0,3.7-1,3,3,0,0,1,1.41-.69A1.47,1.47,0,0,1,162.43,33.26Zm-12-7.68h9c0-2.94-1.53-5-4.38-5C152.45,20.55,150.8,22.44,150.48,25.58Z"/><path class="cls-1" d="M170.34,34.83c0,.93-.53,1.41-1.61,1.41s-1.65-.48-1.65-1.41V11.58c0-1.29.76-1.89,2.21-1.89a3.12,3.12,0,0,1,3,1.73l12.59,19.83V11.09c0-.92.52-1.4,1.61-1.4s1.65.48,1.65,1.4V34.35c0,1.29-.68,1.89-2,1.89a3,3,0,0,1-2.82-1.81L170.34,14.31Z"/><path class="cls-1" d="M201.23,17.85c5.35,0,8.77,3.66,8.77,9.26s-3.46,9.33-8.85,9.33-8.73-3.66-8.73-9.25S195.88,17.85,201.23,17.85Zm0,15.81c3.22,0,5.23-2.53,5.23-6.47s-2.05-6.6-5.27-6.6-5.27,2.53-5.27,6.52S198,33.66,201.23,33.66Z"/><path class="cls-1" d="M216.12,14.35a2.13,2.13,0,0,1-2.21-2.21,2.21,2.21,0,0,1,4.42,0A2.13,2.13,0,0,1,216.12,14.35Zm1.69,20.48c0,.93-.52,1.41-1.65,1.41s-1.73-.48-1.73-1.41V19.46c0-.92.52-1.41,1.65-1.41s1.73.49,1.73,1.41Z"/><path class="cls-1" d="M222.48,23c0-3,2.45-5,6.4-5A9.81,9.81,0,0,1,234,19.22c.84.56,1.2,1.05,1.2,1.61a1.54,1.54,0,0,1-1.41,1.61,3.61,3.61,0,0,1-1.44-.64,7.05,7.05,0,0,0-3.59-1c-1.89,0-3,.84-3,2.05,0,3.38,9.65,2.09,9.65,8.25,0,3.22-2.57,5.27-6.59,5.27a9.35,9.35,0,0,1-5.4-1.53c-.8-.52-1.16-1-1.16-1.57a1.58,1.58,0,0,1,1.45-1.61c.4,0,.68.28,1.32.65a7,7,0,0,0,3.83,1.2c1.93,0,3.25-.88,3.25-2.29C232.09,27.67,222.48,29,222.48,23Z"/><path class="cls-1" d="M253.71,33.26c0,.57-.36,1.05-1.16,1.57A9.68,9.68,0,0,1,247,36.36c-5.39,0-8.61-3.5-8.61-9.17s3.14-9.34,8.09-9.34c4.63,0,7.6,3.34,7.6,7.89,0,2.13-.76,2.37-2.09,2.37H241.72c.32,3.3,2.05,5.35,5.43,5.35a6.58,6.58,0,0,0,3.7-1,3,3,0,0,1,1.41-.69A1.47,1.47,0,0,1,253.71,33.26Zm-12-7.68h9c0-2.94-1.53-5-4.38-5C243.73,20.55,242.08,22.44,241.76,25.58Z"/><path class="cls-1" d="M26.66,3.33H44.25a1.29,1.29,0,0,0,0-2.58H26.66a1.29,1.29,0,1,0,0,2.58Z"/><path class="cls-1" d="M18.73,3.33h2.46a1.29,1.29,0,0,0,0-2.58H18.73a1.29,1.29,0,1,0,0,2.58Z"/><path class="cls-1" d="M29.91,7.16A1.28,1.28,0,0,0,31.2,8.44H47.87a1.29,1.29,0,0,0,0-2.57H31.2A1.29,1.29,0,0,0,29.91,7.16Z"/><path class="cls-1" d="M12.39,8.44H26.1a1.29,1.29,0,1,0,0-2.57H12.39a1.29,1.29,0,1,0,0,2.57Z"/><path class="cls-1" d="M12,12.27a1.29,1.29,0,0,0,1.29,1.29H51.34a1.29,1.29,0,0,0,0-2.58H13.29A1.29,1.29,0,0,0,12,12.27Z"/><path class="cls-1" d="M7.58,13.18A1.33,1.33,0,0,0,8,12.27a1.36,1.36,0,0,0-.38-.91l-.19-.16a1.29,1.29,0,0,0-.23-.12L7,11h0a1.51,1.51,0,0,0-.52,0l-.23.08A.88.88,0,0,0,6,11.2a.67.67,0,0,0-.16.12l0,0a1.25,1.25,0,0,0-.37.91,1.35,1.35,0,0,0,.37.92,1.36,1.36,0,0,0,.92.36A1.34,1.34,0,0,0,7.58,13.18Z"/><path class="cls-1" d="M1.31,26.69l0,0-.12.17a.76.76,0,0,0-.13.23.75.75,0,0,0-.07.23,1.15,1.15,0,0,0,0,.26.83.83,0,0,0,0,.24.84.84,0,0,0,.07.26.51.51,0,0,0,.09.16l0,.06a1.35,1.35,0,0,0,.16.19,1.28,1.28,0,0,0,1.82,0,.78.78,0,0,0,.16-.2l0,0a.48.48,0,0,0,.09-.19.63.63,0,0,0,.08-.23,1.18,1.18,0,0,0,0-.26,1.35,1.35,0,0,0-.37-.92A1.35,1.35,0,0,0,1.31,26.69Z"/><path class="cls-1" d="M10.79,18.73a1.26,1.26,0,0,0,.91-.38,1.28,1.28,0,0,0,0-1.82,1.29,1.29,0,0,0-.91-.36h0a1.31,1.31,0,0,0-.92.36,1.29,1.29,0,0,0,.92,2.2Z"/><path class="cls-1" d="M37.22,17.38a1.29,1.29,0,0,0,1.29,1.29H52.88a1.29,1.29,0,0,0,0-2.57H38.51A1.28,1.28,0,0,0,37.22,17.38Z"/><path class="cls-1" d="M24.45,16.1a1.29,1.29,0,1,0,0,2.57h8.78a1.29,1.29,0,1,0,0-2.57Z"/><path class="cls-1" d="M16.87,16.1a1.29,1.29,0,1,0,0,2.57h2.37a1.29,1.29,0,0,0,0-2.57Z"/><path class="cls-1" d="M54.16,21.21h-47a1.29,1.29,0,0,0,0,2.58H54.16a1.29,1.29,0,1,0,0-2.58Z"/><path class="cls-1" d="M52.88,26.32h-21a1.29,1.29,0,0,0,0,2.58h21a1.29,1.29,0,0,0,0-2.58Z"/><path class="cls-1" d="M26.1,28.9a1.29,1.29,0,0,0,0-2.58h-8a1.29,1.29,0,0,0,0,2.58Z"/><path class="cls-1" d="M14.1,27.61a1.28,1.28,0,0,0-1.28-1.29H7.91a1.29,1.29,0,0,0,0,2.58h4.91A1.28,1.28,0,0,0,14.1,27.61Z"/><path class="cls-1" d="M51.34,31.44H13.29a1.29,1.29,0,1,0,0,2.57H51.34a1.29,1.29,0,1,0,0-2.57Z"/><path class="cls-1" d="M47.87,36.55H29.25a1.29,1.29,0,0,0,0,2.58H47.87a1.29,1.29,0,0,0,0-2.58Z"/><path class="cls-1" d="M24.43,37.84a1.29,1.29,0,0,0-1.29-1.29H10.32a1.29,1.29,0,0,0,0,2.58H23.14A1.29,1.29,0,0,0,24.43,37.84Z"/><path class="cls-1" d="M44.25,41.67H23.63a1.29,1.29,0,1,0,0,2.57H44.25a1.29,1.29,0,1,0,0-2.57Z"/><path class="cls-1" d="M19.17,42.66a1.59,1.59,0,0,0-.07-.2c0-.07-.07-.15-.11-.21a.78.78,0,0,0-.17-.21l-.19-.16-.22-.12a1.27,1.27,0,0,0-.24-.07,1.4,1.4,0,0,0-.5,0,.72.72,0,0,0-.25.07l-.23.12L17,42a1.2,1.2,0,0,0-.17.21,1.13,1.13,0,0,0-.11.22,1.59,1.59,0,0,0-.07.2v.05a1,1,0,0,0,0,.25,1.31,1.31,0,0,0,.38.91,1.56,1.56,0,0,0,.2.16l.06,0,.16.09a1.05,1.05,0,0,0,.24.06.93.93,0,0,0,.25,0,.69.69,0,0,0,.25,0,1,1,0,0,0,.25-.06,1.06,1.06,0,0,0,.22-.13l.2-.15A1.32,1.32,0,0,0,19.2,43a2.45,2.45,0,0,0,0-.27Z"/></svg>