<svg xmlns="http://www.w3.org/2000/svg" viewBox="0 0 253.15 43.49"><g id="Layer_2" data-name="Layer 2"><g id="Layer_1-2" data-name="Layer 1"><path d="M75.47,33.8a2.06,2.06,0,0,1-2.33,1.69c-1.53,0-2-.57-2.29-1.65L64.93,11.07A3.4,3.4,0,0,1,64.77,10c0-.56.28-1.09,1.65-1.09a1.7,1.7,0,0,1,2,1.53l5,20.52L79.5,11.79a2,2,0,0,1,2.25-1.73A2,2,0,0,1,84,11.79L89.84,31l5.27-20.52c.28-1.17.68-1.53,1.85-1.53s1.61.53,1.61,1.09a5.26,5.26,0,0,1-.16,1.05L92.29,33.84c-.28,1.08-.76,1.65-2.25,1.65a2.08,2.08,0,0,1-2.38-1.69l-6-19.19Z"/><path d="M118.08,34.08c0,.92-.52,1.41-1.65,1.41s-1.73-.49-1.73-1.41V24.82a5.57,5.57,0,0,0-.8-3.21,3.68,3.68,0,0,0-3.26-1.41,5.12,5.12,0,0,0-4.46,2.29V34.08c0,.92-.53,1.41-1.65,1.41s-1.73-.49-1.73-1.41V9.21c0-.92.52-1.4,1.65-1.4s1.73.48,1.73,1.4V19.84a6.52,6.52,0,0,1,5.59-2.62c2.53,0,4.1.85,5.15,2.33a8.33,8.33,0,0,1,1.16,4.75Z"/><path d="M125,13.6a2.13,2.13,0,0,1-2.21-2.21,2.21,2.21,0,0,1,4.42,0A2.13,2.13,0,0,1,125,13.6Zm1.69,20.48c0,.92-.52,1.41-1.65,1.41s-1.73-.49-1.73-1.41V18.71c0-.93.52-1.41,1.65-1.41s1.73.48,1.73,1.41Z"/><path d="M143.92,33.56a1.35,1.35,0,0,1-.81,1.2,7.26,7.26,0,0,1-3.58.85c-2.37,0-3.86-.93-4.66-2.42a9.76,9.76,0,0,1-.77-4.74V20.52h-2.25a1.24,1.24,0,0,1-1.41-1.41,1.27,1.27,0,0,1,1.41-1.45h2.25V13.28c0-.93.52-1.41,1.65-1.41s1.73.48,1.73,1.41v4.38h4.59a1.25,1.25,0,0,1,1.41,1.41,1.27,1.27,0,0,1-1.41,1.45h-4.59v7.93a7.45,7.45,0,0,0,.44,3.17,2.18,2.18,0,0,0,2.1,1.09,4.33,4.33,0,0,0,1.68-.36,3.29,3.29,0,0,1,.93-.32C143.56,32,143.92,33,143.92,33.56Z"/><path d="M161.5,32.51c0,.56-.36,1.05-1.16,1.57a9.76,9.76,0,0,1-5.56,1.53c-5.39,0-8.61-3.5-8.61-9.18s3.14-9.33,8.09-9.33c4.63,0,7.61,3.34,7.61,7.89,0,2.13-.77,2.37-2.1,2.37H149.51c.33,3.3,2.06,5.35,5.44,5.35a6.55,6.55,0,0,0,3.7-1,2.93,2.93,0,0,1,1.4-.68A1.46,1.46,0,0,1,161.5,32.51Zm-11.95-7.69h9c0-2.93-1.53-5-4.39-5C151.52,19.8,149.87,21.69,149.55,24.82Z"/><path d="M169.41,34.08c0,.92-.52,1.41-1.61,1.41s-1.65-.49-1.65-1.41V10.82c0-1.28.77-1.89,2.21-1.89a3.13,3.13,0,0,1,3,1.73L183.93,30.5V10.34c0-.92.53-1.41,1.61-1.41s1.65.49,1.65,1.41V33.6c0,1.28-.68,1.89-2,1.89a3,3,0,0,1-2.82-1.81l-13-20.12Z"/><path d="M200.3,17.1c5.36,0,8.78,3.66,8.78,9.25s-3.46,9.34-8.86,9.34-8.73-3.66-8.73-9.26S195,17.1,200.3,17.1Zm0,15.81c3.22,0,5.23-2.53,5.23-6.48s-2.05-6.59-5.27-6.59S195,22.37,195,26.35,197.09,32.91,200.3,32.91Z"/><path d="M215.19,13.6A2.14,2.14,0,0,1,213,11.39a2.22,2.22,0,0,1,4.43,0A2.14,2.14,0,0,1,215.19,13.6Zm1.69,20.48c0,.92-.52,1.41-1.65,1.41s-1.73-.49-1.73-1.41V18.71c0-.93.53-1.41,1.65-1.41s1.73.48,1.73,1.41Z"/><path d="M221.55,22.21c0-3,2.46-5,6.4-5A9.71,9.71,0,0,1,233,18.47c.84.56,1.2,1,1.2,1.61a1.54,1.54,0,0,1-1.4,1.61c-.37,0-.73-.24-1.45-.65a7.14,7.14,0,0,0-3.58-1c-1.89,0-3,.84-3,2.05,0,3.38,9.66,2.09,9.66,8.25,0,3.22-2.58,5.27-6.6,5.27a9.41,9.41,0,0,1-5.39-1.53c-.81-.52-1.17-1-1.17-1.57a1.58,1.58,0,0,1,1.45-1.61c.4,0,.68.28,1.33.64a6.86,6.86,0,0,0,3.82,1.21c1.93,0,3.26-.89,3.26-2.29C231.17,26.92,221.55,28.2,221.55,22.21Z"/><path d="M252.78,32.51c0,.56-.36,1.05-1.16,1.57a9.76,9.76,0,0,1-5.56,1.53c-5.39,0-8.6-3.5-8.6-9.18s3.13-9.33,8.08-9.33c4.63,0,7.61,3.34,7.61,7.89,0,2.13-.77,2.37-2.1,2.37H240.79c.33,3.3,2.06,5.35,5.44,5.35a6.55,6.55,0,0,0,3.7-1,2.92,2.92,0,0,1,1.41-.68A1.46,1.46,0,0,1,252.78,32.51Zm-11.94-7.69h9c0-2.93-1.53-5-4.39-5C242.81,19.8,241.16,21.69,240.84,24.82Z"/><path d="M25.74,2.58H43.32a1.29,1.29,0,0,0,0-2.58H25.74a1.29,1.29,0,1,0,0,2.58Z"/><path d="M17.8,2.58h2.47a1.29,1.29,0,0,0,0-2.58H17.8a1.29,1.29,0,1,0,0,2.58Z"/><path d="M29,6.4a1.29,1.29,0,0,0,1.29,1.29H46.94a1.29,1.29,0,0,0,0-2.58H30.28A1.29,1.29,0,0,0,29,6.4Z"/><path d="M11.46,7.69H25.17a1.29,1.29,0,0,0,0-2.58H11.46a1.29,1.29,0,0,0,0,2.58Z"/><path d="M11.08,11.52a1.28,1.28,0,0,0,1.28,1.29H50.41a1.29,1.29,0,0,0,0-2.58h-38A1.28,1.28,0,0,0,11.08,11.52Z"/><path d="M6.65,12.43A1.36,1.36,0,0,0,7,11.51a1.27,1.27,0,0,0-.38-.9,1.35,1.35,0,0,0-.19-.16.85.85,0,0,0-.23-.12L6,10.26H6a1.25,1.25,0,0,0-.51,0,.9.9,0,0,0-.23.08.59.59,0,0,0-.22.12.91.91,0,0,0-.16.11l0,0a1.29,1.29,0,0,0-.37.9,1.31,1.31,0,0,0,.37.92,1.33,1.33,0,0,0,.92.37A1.3,1.3,0,0,0,6.65,12.43Z"/><path d="M.38,25.94l0,0a1.53,1.53,0,0,0-.13.16,1.12,1.12,0,0,0-.13.24A1.19,1.19,0,0,0,0,26.6a1.15,1.15,0,0,0,0,.26.83.83,0,0,0,0,.24.84.84,0,0,0,.07.26l.09.16,0,.06c.05.06.1.13.16.19a1.26,1.26,0,0,0,.91.38,1.32,1.32,0,0,0,.92-.38,1.56,1.56,0,0,0,.16-.2l0,0a1.63,1.63,0,0,0,.09-.19,1.09,1.09,0,0,0,.07-.24.72.72,0,0,0,0-.25,1.34,1.34,0,0,0-.38-.92A1.35,1.35,0,0,0,.38,25.94Z"/><path d="M9.86,18a1.26,1.26,0,0,0,.91-.38,1.28,1.28,0,0,0,0-1.82,1.29,1.29,0,0,0-.91-.36h0a1.28,1.28,0,0,0,0,2.56Z"/><path d="M36.29,16.63a1.29,1.29,0,0,0,1.29,1.29H52a1.29,1.29,0,0,0,0-2.58H37.58A1.29,1.29,0,0,0,36.29,16.63Z"/><path d="M23.52,15.34a1.29,1.29,0,0,0,0,2.58H32.3a1.29,1.29,0,0,0,0-2.58Z"/><path d="M16,15.34a1.29,1.29,0,0,0,0,2.58h2.36a1.29,1.29,0,1,0,0-2.58Z"/><path d="M53.24,20.46H6.18a1.29,1.29,0,1,0,0,2.57H53.24a1.29,1.29,0,0,0,0-2.57Z"/><path d="M52,25.57h-21a1.29,1.29,0,0,0,0,2.58H52a1.29,1.29,0,0,0,0-2.58Z"/><path d="M25.17,28.15a1.29,1.29,0,0,0,0-2.58h-8a1.29,1.29,0,0,0,0,2.58Z"/><path d="M13.18,26.86a1.29,1.29,0,0,0-1.29-1.29H7a1.29,1.29,0,0,0,0,2.58h4.91A1.29,1.29,0,0,0,13.18,26.86Z"/><path d="M50.41,30.68h-38a1.29,1.29,0,0,0,0,2.58H50.41a1.29,1.29,0,1,0,0-2.58Z"/><path d="M46.94,35.8H28.32a1.29,1.29,0,0,0,0,2.58H46.94a1.29,1.29,0,0,0,0-2.58Z"/><path d="M23.5,37.09a1.29,1.29,0,0,0-1.29-1.29H9.39a1.29,1.29,0,0,0,0,2.58H22.21A1.29,1.29,0,0,0,23.5,37.09Z"/><path d="M43.32,40.91H22.7a1.29,1.29,0,0,0,0,2.58H43.32a1.29,1.29,0,0,0,0-2.58Z"/><path d="M18.24,41.91a1.18,1.18,0,0,0-.07-.2.7.7,0,0,0-.11-.21.82.82,0,0,0-.16-.22c-.07-.05-.13-.11-.2-.15L17.48,41a.73.73,0,0,0-.24-.07,1.34,1.34,0,0,0-.49,0,.84.84,0,0,0-.26.07l-.22.12-.19.15a1.29,1.29,0,0,0-.17.21.91.91,0,0,0-.11.22,1.18,1.18,0,0,0-.07.2v0a2.11,2.11,0,0,0,0,.26,1.23,1.23,0,0,0,.38.9,1,1,0,0,0,.19.16l.06,0,.16.08a.73.73,0,0,0,.24.07,1.07,1.07,0,0,0,.25,0,1.15,1.15,0,0,0,.26,0,.73.73,0,0,0,.24-.07l.22-.12a1.4,1.4,0,0,0,.2-.16,1.3,1.3,0,0,0,.37-.9,2.45,2.45,0,0,0,0-.27Z"/></g></g></svg>