<svg xmlns="http://www.w3.org/2000/svg" viewBox="0 0 54.52 43.49"><defs><style>.cls-1{fill:#6d6d6d;}.cls-2{fill:#d7d7d7;}.cls-3{fill:#a4a4a4;}</style></defs><g id="Layer_2" data-name="Layer 2"><g id="Layer_1-2" data-name="Layer 1"><path d="M25.74,2.58H43.32a1.29,1.29,0,0,0,0-2.58H25.74a1.29,1.29,0,1,0,0,2.58Z"/><path class="cls-1" d="M17.8,2.58h2.47a1.29,1.29,0,0,0,0-2.58H17.8a1.29,1.29,0,1,0,0,2.58Z"/><path d="M29,6.4a1.29,1.29,0,0,0,1.29,1.29H46.94a1.29,1.29,0,0,0,0-2.58H30.28A1.29,1.29,0,0,0,29,6.4Z"/><path class="cls-1" d="M11.46,7.69H25.17a1.29,1.29,0,0,0,0-2.58H11.46a1.29,1.29,0,0,0,0,2.58Z"/><path d="M11.08,11.52a1.28,1.28,0,0,0,1.28,1.29H50.41a1.29,1.29,0,0,0,0-2.58h-38A1.28,1.28,0,0,0,11.08,11.52Z"/><path class="cls-1" d="M6.65,12.43A1.36,1.36,0,0,0,7,11.51a1.27,1.27,0,0,0-.38-.9,1.35,1.35,0,0,0-.19-.16.85.85,0,0,0-.23-.12L6,10.26H6a1.25,1.25,0,0,0-.51,0,.9.9,0,0,0-.23.08.59.59,0,0,0-.22.12.91.91,0,0,0-.16.11l0,0a1.29,1.29,0,0,0-.37.9,1.31,1.31,0,0,0,.37.92,1.33,1.33,0,0,0,.92.37A1.3,1.3,0,0,0,6.65,12.43Z"/><path class="cls-2" d="M.38,25.94l0,0a1.53,1.53,0,0,0-.13.16,1.12,1.12,0,0,0-.13.24A1.19,1.19,0,0,0,0,26.6a1.15,1.15,0,0,0,0,.26.83.83,0,0,0,0,.24.84.84,0,0,0,.07.26l.09.16,0,.06c.05.06.1.13.16.19a1.26,1.26,0,0,0,.91.38,1.32,1.32,0,0,0,.92-.38,1.56,1.56,0,0,0,.16-.2l0,0a1.63,1.63,0,0,0,.09-.19,1.09,1.09,0,0,0,.07-.24.72.72,0,0,0,0-.25,1.34,1.34,0,0,0-.38-.92A1.35,1.35,0,0,0,.38,25.94Z"/><path class="cls-2" d="M9.86,18a1.26,1.26,0,0,0,.91-.38,1.28,1.28,0,0,0,0-1.82,1.29,1.29,0,0,0-.91-.36h0a1.28,1.28,0,0,0,0,2.56Z"/><path d="M36.29,16.63a1.29,1.29,0,0,0,1.29,1.29H52a1.29,1.29,0,0,0,0-2.58H37.58A1.29,1.29,0,0,0,36.29,16.63Z"/><path class="cls-1" d="M23.52,15.34a1.29,1.29,0,0,0,0,2.58H32.3a1.29,1.29,0,0,0,0-2.58Z"/><path class="cls-3" d="M16,15.34a1.29,1.29,0,0,0,0,2.58h2.36a1.29,1.29,0,1,0,0-2.58Z"/><path d="M53.24,20.46H6.18a1.29,1.29,0,1,0,0,2.57H53.24a1.29,1.29,0,0,0,0-2.57Z"/><path d="M52,25.57h-21a1.29,1.29,0,0,0,0,2.58H52a1.29,1.29,0,0,0,0-2.58Z"/><path class="cls-1" d="M25.17,28.15a1.29,1.29,0,0,0,0-2.58h-8a1.29,1.29,0,0,0,0,2.58Z"/><path class="cls-3" d="M13.18,26.86a1.29,1.29,0,0,0-1.29-1.29H7a1.29,1.29,0,0,0,0,2.58h4.91A1.29,1.29,0,0,0,13.18,26.86Z"/><path d="M50.41,30.68h-38a1.29,1.29,0,0,0,0,2.58H50.41a1.29,1.29,0,1,0,0-2.58Z"/><path d="M46.94,35.8H28.32a1.29,1.29,0,0,0,0,2.58H46.94a1.29,1.29,0,0,0,0-2.58Z"/><path class="cls-1" d="M23.5,37.09a1.29,1.29,0,0,0-1.29-1.29H9.39a1.29,1.29,0,0,0,0,2.58H22.21A1.29,1.29,0,0,0,23.5,37.09Z"/><path d="M43.32,40.91H22.7a1.29,1.29,0,0,0,0,2.58H43.32a1.29,1.29,0,0,0,0-2.58Z"/><path class="cls-1" d="M18.24,41.91a1.18,1.18,0,0,0-.07-.2.7.7,0,0,0-.11-.21.82.82,0,0,0-.16-.22c-.07-.05-.13-.11-.2-.15L17.48,41a.73.73,0,0,0-.24-.07,1.34,1.34,0,0,0-.49,0,.84.84,0,0,0-.26.07l-.22.12-.19.15a1.29,1.29,0,0,0-.17.21.91.91,0,0,0-.11.22,1.18,1.18,0,0,0-.07.2v0a2.11,2.11,0,0,0,0,.26,1.23,1.23,0,0,0,.38.9,1,1,0,0,0,.19.16l.06,0,.16.08a.73.73,0,0,0,.24.07,1.07,1.07,0,0,0,.25,0,1.15,1.15,0,0,0,.26,0,.73.73,0,0,0,.24-.07l.22-.12a1.4,1.4,0,0,0,.2-.16,1.3,1.3,0,0,0,.37-.9,2.45,2.45,0,0,0,0-.27Z"/></g></g></svg>