<svg xmlns="http://www.w3.org/2000/svg" viewBox="0 0 195 35"><g id="Layer_2" data-name="Layer 2"><path d="M14,29.55a2.05,2.05,0,0,1-2.33,1.69c-1.53,0-2-.56-2.29-1.65L3.47,6.82a3.36,3.36,0,0,1-.16-1.05c0-.56.28-1.08,1.65-1.08a1.7,1.7,0,0,1,2,1.52l5,20.52L18,7.54a2,2,0,0,1,2.25-1.73A2,2,0,0,1,22.5,7.54l5.88,19.19L33.65,6.21c.28-1.16.68-1.52,1.85-1.52s1.61.52,1.61,1.08A5.15,5.15,0,0,1,37,6.82L30.83,29.59c-.28,1.09-.76,1.65-2.25,1.65a2.07,2.07,0,0,1-2.38-1.69l-6-19.19Z"/><path d="M56.63,29.83c0,.93-.53,1.41-1.65,1.41s-1.73-.48-1.73-1.41V20.58a5.51,5.51,0,0,0-.81-3.22A3.68,3.68,0,0,0,49.18,16a5.14,5.14,0,0,0-4.46,2.29V29.83c0,.93-.53,1.41-1.65,1.41s-1.73-.48-1.73-1.41V5c0-.93.52-1.41,1.65-1.41S44.72,4,44.72,5V15.59A6.52,6.52,0,0,1,50.31,13c2.53,0,4.1.85,5.15,2.34a8.26,8.26,0,0,1,1.17,4.74Z"/><path d="M63.54,9.35a2.13,2.13,0,0,1-2.21-2.21,2.21,2.21,0,0,1,4.42,0A2.13,2.13,0,0,1,63.54,9.35Zm1.69,20.48c0,.93-.52,1.41-1.65,1.41s-1.73-.48-1.73-1.41V14.46c0-.92.52-1.41,1.65-1.41s1.73.49,1.73,1.41Z"/><path d="M82.46,29.31a1.36,1.36,0,0,1-.8,1.2,7.33,7.33,0,0,1-3.59.85c-2.37,0-3.86-.92-4.66-2.41a9.8,9.8,0,0,1-.77-4.75V16.27H70.39A1.24,1.24,0,0,1,69,14.86a1.26,1.26,0,0,1,1.41-1.44h2.25V9c0-.92.53-1.41,1.65-1.41S76,8.11,76,9v4.39h4.59A1.24,1.24,0,0,1,82,14.82a1.27,1.27,0,0,1-1.41,1.45H76V24.2a7.52,7.52,0,0,0,.44,3.18,2.19,2.19,0,0,0,2.1,1.08,4.42,4.42,0,0,0,1.69-.36,3.15,3.15,0,0,1,.92-.32C82.1,27.78,82.46,28.79,82.46,29.31Z"/><path d="M100,28.26c0,.57-.36,1-1.16,1.57a9.67,9.67,0,0,1-5.55,1.53c-5.4,0-8.62-3.5-8.62-9.17s3.14-9.34,8.09-9.34c4.63,0,7.61,3.34,7.61,7.89,0,2.13-.77,2.37-2.1,2.37H88.05c.33,3.3,2.06,5.35,5.44,5.35a6.63,6.63,0,0,0,3.7-1,3,3,0,0,1,1.41-.69A1.47,1.47,0,0,1,100,28.26Zm-12-7.68h9c0-2.94-1.53-5-4.39-5C90.07,15.55,88.42,17.44,88.09,20.58Z"/><path d="M108,29.83c0,.93-.52,1.41-1.61,1.41s-1.65-.48-1.65-1.41V6.58c0-1.29.77-1.89,2.22-1.89a3.11,3.11,0,0,1,3,1.73l12.59,19.83V6.09c0-.92.53-1.4,1.61-1.4s1.65.48,1.65,1.4V29.35c0,1.29-.68,1.89-2,1.89a3,3,0,0,1-2.81-1.81L108,9.31Z"/><path d="M138.85,12.85c5.35,0,8.77,3.66,8.77,9.26s-3.46,9.33-8.85,9.33S130,27.78,130,22.19,133.49,12.85,138.85,12.85Zm0,15.81c3.21,0,5.23-2.53,5.23-6.47s-2.06-6.6-5.27-6.6-5.27,2.53-5.27,6.52S135.63,28.66,138.85,28.66Z"/><path d="M153.74,9.35a2.13,2.13,0,0,1-2.22-2.21,2.22,2.22,0,0,1,4.43,0A2.13,2.13,0,0,1,153.74,9.35Zm1.69,20.48c0,.93-.53,1.41-1.65,1.41s-1.73-.48-1.73-1.41V14.46c0-.92.52-1.41,1.64-1.41s1.74.49,1.74,1.41Z"/><path d="M160.09,18c0-3,2.46-5,6.4-5a9.81,9.81,0,0,1,5.07,1.29c.84.56,1.21,1,1.21,1.61a1.55,1.55,0,0,1-1.41,1.61,3.64,3.64,0,0,1-1.45-.64,7,7,0,0,0-3.58-1c-1.89,0-3,.84-3,2.05,0,3.38,9.66,2.09,9.66,8.25,0,3.22-2.58,5.27-6.6,5.27A9.34,9.34,0,0,1,161,29.83c-.81-.52-1.17-1-1.17-1.57a1.58,1.58,0,0,1,1.45-1.61c.4,0,.68.28,1.33.65a6.93,6.93,0,0,0,3.82,1.2c1.93,0,3.26-.88,3.26-2.29C169.71,22.67,160.09,24,160.09,18Z"/><path d="M191.33,28.26c0,.57-.37,1-1.17,1.57a9.67,9.67,0,0,1-5.55,1.53c-5.39,0-8.61-3.5-8.61-9.17s3.13-9.34,8.08-9.34c4.63,0,7.61,3.34,7.61,7.89,0,2.13-.77,2.37-2.09,2.37H179.34c.32,3.3,2,5.35,5.43,5.35a6.6,6.6,0,0,0,3.7-1,3,3,0,0,1,1.41-.69A1.48,1.48,0,0,1,191.33,28.26Zm-12-7.68h9c0-2.94-1.53-5-4.39-5C181.35,15.55,179.7,17.44,179.38,20.58Z"/></g></svg>