<svg xmlns="http://www.w3.org/2000/svg" viewBox="0 0 188.37 27.88"><g id="Layer_2" data-name="Layer 2"><g id="Layer_1-2" data-name="Layer 1"><path d="M10.7,26a2.05,2.05,0,0,1-2.33,1.69c-1.53,0-2-.56-2.29-1.65L.16,3.26a3.36,3.36,0,0,1-.16-1c0-.56.28-1.08,1.65-1.08a1.7,1.7,0,0,1,2,1.52l5,20.52L14.73,4A2,2,0,0,1,17,2.25,2,2,0,0,1,19.19,4l5.87,19.19L30.34,2.65c.28-1.16.68-1.52,1.85-1.52s1.61.52,1.61,1.08a5.2,5.2,0,0,1-.17,1L27.52,26c-.28,1.09-.77,1.65-2.25,1.65A2.07,2.07,0,0,1,22.89,26L16.9,6.8Z"/><path d="M53.31,26.27c0,.93-.52,1.41-1.65,1.41s-1.73-.48-1.73-1.41V17a5.58,5.58,0,0,0-.8-3.22,3.68,3.68,0,0,0-3.26-1.41,5.17,5.17,0,0,0-4.47,2.29V26.27c0,.93-.52,1.41-1.65,1.41S38,27.2,38,26.27V1.41C38,.48,38.55,0,39.67,0S41.4.48,41.4,1.41V12A6.55,6.55,0,0,1,47,9.41c2.53,0,4.1.85,5.15,2.34a8.27,8.27,0,0,1,1.16,4.74Z"/><path d="M60.23,5.79A2.13,2.13,0,0,1,58,3.58a2.21,2.21,0,0,1,4.42,0A2.13,2.13,0,0,1,60.23,5.79Zm1.69,20.48c0,.93-.52,1.41-1.65,1.41s-1.73-.48-1.73-1.41V10.9c0-.92.52-1.41,1.65-1.41s1.73.49,1.73,1.41Z"/><path d="M79.15,25.75a1.35,1.35,0,0,1-.81,1.2,7.26,7.26,0,0,1-3.58.85c-2.37,0-3.86-.92-4.67-2.41a9.92,9.92,0,0,1-.76-4.75V12.71H67.08a1.24,1.24,0,0,1-1.41-1.41,1.26,1.26,0,0,1,1.41-1.44h2.25V5.47c0-.92.52-1.41,1.65-1.41s1.73.49,1.73,1.41V9.86H77.3a1.24,1.24,0,0,1,1.4,1.41,1.26,1.26,0,0,1-1.4,1.44H72.71v7.93a7.52,7.52,0,0,0,.44,3.18,2.17,2.17,0,0,0,2.09,1.08,4.34,4.34,0,0,0,1.69-.36,3.29,3.29,0,0,1,.93-.32C78.78,24.22,79.15,25.23,79.15,25.75Z"/><path d="M96.73,24.7c0,.57-.36,1.05-1.17,1.57A9.63,9.63,0,0,1,90,27.8c-5.39,0-8.61-3.5-8.61-9.17s3.14-9.34,8.09-9.34c4.63,0,7.6,3.34,7.6,7.89,0,2.13-.76,2.37-2.09,2.37H84.74c.32,3.3,2.05,5.35,5.43,5.35a6.64,6.64,0,0,0,3.71-1,3,3,0,0,1,1.4-.69A1.47,1.47,0,0,1,96.73,24.7ZM84.78,17h9c0-2.94-1.52-5-4.38-5C86.75,12,85.1,13.88,84.78,17Z"/><path d="M104.64,26.27c0,.93-.52,1.41-1.61,1.41s-1.65-.48-1.65-1.41V3c0-1.29.76-1.89,2.21-1.89a3.11,3.11,0,0,1,3,1.73l12.59,19.83V2.53c0-.92.53-1.4,1.61-1.4s1.65.48,1.65,1.4V25.79c0,1.29-.68,1.89-2,1.89a3,3,0,0,1-2.82-1.81l-13-20.12Z"/><path d="M135.53,9.29c5.36,0,8.77,3.66,8.77,9.26s-3.46,9.33-8.85,9.33-8.73-3.66-8.73-9.25S130.18,9.29,135.53,9.29Zm0,15.82c3.22,0,5.23-2.54,5.23-6.48s-2-6.6-5.27-6.6-5.27,2.53-5.27,6.52S132.31,25.11,135.53,25.11Z"/><path d="M150.42,5.79a2.13,2.13,0,0,1-2.21-2.21,2.21,2.21,0,0,1,4.42,0A2.13,2.13,0,0,1,150.42,5.79Zm1.69,20.48c0,.93-.52,1.41-1.65,1.41s-1.73-.48-1.73-1.41V10.9c0-.92.53-1.41,1.65-1.41s1.73.49,1.73,1.41Z"/><path d="M156.78,14.4c0-3,2.46-5,6.4-5a9.81,9.81,0,0,1,5.07,1.29c.84.56,1.2,1.05,1.2,1.61a1.54,1.54,0,0,1-1.4,1.61,3.58,3.58,0,0,1-1.45-.64,7,7,0,0,0-3.58-1c-1.89,0-3,.85-3,2,0,3.38,9.66,2.09,9.66,8.25,0,3.22-2.58,5.27-6.6,5.27a9.32,9.32,0,0,1-5.39-1.53c-.81-.52-1.17-1-1.17-1.57A1.58,1.58,0,0,1,158,23.09c.4,0,.68.28,1.32.65a7,7,0,0,0,3.83,1.2c1.93,0,3.26-.88,3.26-2.29C166.4,19.11,156.78,20.4,156.78,14.4Z"/><path d="M188,24.7c0,.57-.36,1.05-1.16,1.57a9.68,9.68,0,0,1-5.56,1.53c-5.39,0-8.6-3.5-8.6-9.17s3.13-9.34,8.08-9.34c4.63,0,7.6,3.34,7.6,7.89,0,2.13-.76,2.37-2.09,2.37H176c.33,3.3,2.06,5.35,5.43,5.35a6.64,6.64,0,0,0,3.71-1,3,3,0,0,1,1.4-.69A1.47,1.47,0,0,1,188,24.7ZM176.06,17h9c0-2.94-1.53-5-4.39-5C178,12,176.39,13.88,176.06,17Z"/></g></g></svg>